<svg id="credit-card" xmlns="http://www.w3.org/2000/svg" width="41.046" height="32.89" viewBox="0 0 41.046 32.89">
  <path id="Trazado_12613" data-name="Trazado 12613" d="M2.173,10.462A2.173,2.173,0,0,1,0,8.289V6.25A6.258,6.258,0,0,1,6.251,0H34.8a6.257,6.257,0,0,1,6.25,6.25V8.289a2.173,2.173,0,0,1-2.173,2.173ZM6.251,32.89A6.257,6.257,0,0,1,0,26.64V14.406a2.173,2.173,0,0,1,2.173-2.173h36.7a2.172,2.172,0,0,1,2.173,2.173V26.64a6.257,6.257,0,0,1-6.25,6.25Z"/>
  <path id="Trazado_12614" data-name="Trazado 12614" d="M37.623,5A4.079,4.079,0,0,1,41.7,9.078v2.039H5V9.078A4.077,4.077,0,0,1,9.078,5ZM41.7,29.467a4.082,4.082,0,0,1-4.078,4.078H9.078A4.08,4.08,0,0,1,5,29.467V17.234H41.7ZM12.136,25.389a1.019,1.019,0,1,0,0,2.039h4.078a1.019,1.019,0,1,0,0-2.039Zm8.156,2.039h8.156a1.019,1.019,0,0,0,0-2.039H20.292a1.019,1.019,0,1,0,0,2.039" transform="translate(-2.827 -2.827)" fill="#fed4fe"/>
</svg>
