<svg xmlns="http://www.w3.org/2000/svg" width="24.642" height="19.746" viewBox="0 0 24.642 19.746">
  <g id="credit-card" transform="translate(-386.77 -845)">
    <path id="Trazado_12613" data-name="Trazado 12613" d="M1.3,6.281A1.3,1.3,0,0,1,0,4.977V3.752A3.757,3.757,0,0,1,3.753,0H20.89a3.757,3.757,0,0,1,3.752,3.752V4.977a1.3,1.3,0,0,1-1.3,1.3ZM3.753,19.746A3.757,3.757,0,0,1,0,15.993V8.649a1.3,1.3,0,0,1,1.3-1.3H23.338a1.3,1.3,0,0,1,1.3,1.3v7.345a3.756,3.756,0,0,1-3.752,3.752Z" transform="translate(386.77 845)"/>
    <path id="Trazado_12614" data-name="Trazado 12614" d="M24.585,5a2.449,2.449,0,0,1,2.448,2.448V8.672H5V7.448A2.448,2.448,0,0,1,7.448,5Zm2.448,14.689a2.451,2.451,0,0,1-2.448,2.448H7.448A2.449,2.449,0,0,1,5,19.689V12.345H27.034ZM9.284,17.241a.612.612,0,1,0,0,1.224h2.448a.612.612,0,1,0,0-1.224Zm4.9,1.224h4.9a.612.612,0,1,0,0-1.224h-4.9a.612.612,0,1,0,0,1.224" transform="translate(383.074 841.304)" fill="#fed4fe"/>
  </g>
</svg>
