<svg xmlns="http://www.w3.org/2000/svg" width="123.023" height="14.938" viewBox="0 0 123.023 14.938">
  <g id="Grupo_18143" data-name="Grupo 18143" transform="translate(-5.973 -2.165)">
    <path id="Trazado_11185" data-name="Trazado 11185" d="M66.176,2.165l-2.334.506A3.339,3.339,0,0,1,63.35,3.9a3.262,3.262,0,0,1-2.126,1.473c-.05.01-.094.015-.142.024V8.221h1.536v5.122A3.47,3.47,0,0,0,63.683,16.1a4.659,4.659,0,0,0,3.154.934,9.687,9.687,0,0,0,1.252-.1,7.265,7.265,0,0,0,1.231-.252V13.8a5.828,5.828,0,0,1-.813.186,5.416,5.416,0,0,1-.792.055,1.752,1.752,0,0,1-1.2-.319,1.441,1.441,0,0,1-.34-1.088V8.219h3.249V5.253H66.176Z" transform="translate(-27.703)" fill="#00369c"/>
    <path id="Trazado_11186" data-name="Trazado 11186" d="M31.112,4.021a1.967,1.967,0,0,0,1.856-1.856H29.04A1.967,1.967,0,0,0,31.112,4.021Z" transform="translate(-11.595)" fill="#00369c"/>
    <path id="Trazado_11187" data-name="Trazado 11187" d="M13.118,12.716l-2.308-.353a2.668,2.668,0,0,1-1.055-.319.643.643,0,0,1-.307-.559.684.684,0,0,1,.417-.6,2.265,2.265,0,0,1,1.1-.231,6.025,6.025,0,0,1,1.714.253,8.311,8.311,0,0,1,1.8.8l1.691-2.288a9.257,9.257,0,0,0-4.857-1.406,5.966,5.966,0,0,0-3.67,1.012A3.277,3.277,0,0,0,6.3,11.791a3.073,3.073,0,0,0,.923,2.319,4.733,4.733,0,0,0,2.636,1.154l2.308.351a2.06,2.06,0,0,1,.9.3.641.641,0,0,1,.286.539.76.76,0,0,1-.52.67,3.215,3.215,0,0,1-1.392.252,5.659,5.659,0,0,1-1.78-.3,10.155,10.155,0,0,1-2-.955l-1.691,2.4A7.222,7.222,0,0,0,8.4,19.648a11.7,11.7,0,0,0,3.065.384,7.089,7.089,0,0,0,2.089-.3,5.28,5.28,0,0,0,1.659-.821A3.946,3.946,0,0,0,16.3,17.661a3.21,3.21,0,0,0,.4-1.56,2.98,2.98,0,0,0-.934-2.253A4.675,4.675,0,0,0,13.118,12.716Z" transform="translate(0 -2.934)" fill="#00369c"/>
    <path id="Trazado_11188" data-name="Trazado 11188" d="M45.42,12.717l-2.308-.353a2.668,2.668,0,0,1-1.055-.319.642.642,0,0,1-.307-.559.684.684,0,0,1,.417-.6,2.265,2.265,0,0,1,1.1-.231,6.045,6.045,0,0,1,1.714.253,8.335,8.335,0,0,1,1.8.8l1.691-2.288a9.022,9.022,0,0,0-2.341-1.044,9.133,9.133,0,0,0-2.516-.363,5.966,5.966,0,0,0-3.67,1.012,3.277,3.277,0,0,0-1.34,2.769,3.073,3.073,0,0,0,.923,2.319,4.733,4.733,0,0,0,2.636,1.154l2.308.351a2.058,2.058,0,0,1,.9.3.641.641,0,0,1,.286.539.76.76,0,0,1-.517.67,3.211,3.211,0,0,1-1.395.252,5.659,5.659,0,0,1-1.78-.3,10.155,10.155,0,0,1-2-.955l-1.691,2.4A7.217,7.217,0,0,0,40.7,19.652a11.694,11.694,0,0,0,3.065.384,7.075,7.075,0,0,0,2.089-.3,5.276,5.276,0,0,0,1.659-.824A3.946,3.946,0,0,0,48.6,17.661,3.21,3.21,0,0,0,49,16.1a2.98,2.98,0,0,0-.934-2.253A4.682,4.682,0,0,0,45.42,12.717Z" transform="translate(-16.238 -2.934)" fill="#00369c"/>
    <path id="Trazado_11189" data-name="Trazado 11189" d="M89.375,9.782a5.679,5.679,0,0,0-4.209-1.8,6.16,6.16,0,0,0-2.384.461,5.893,5.893,0,0,0-1.923,1.274A6.063,6.063,0,0,0,79.1,14a5.718,5.718,0,0,0,.495,2.362,6.034,6.034,0,0,0,1.343,1.923,6.119,6.119,0,0,0,2.011,1.274,6.681,6.681,0,0,0,2.484.462,7.638,7.638,0,0,0,2.6-.417,7.5,7.5,0,0,0,2.253-1.343l-2.351-2.085a2.884,2.884,0,0,1-1.011.647,3.625,3.625,0,0,1-1.318.231,3.013,3.013,0,0,1-1.758-.517,3.06,3.06,0,0,1-1.1-1.329h8.282V14.33a7.209,7.209,0,0,0-.44-2.536A5.983,5.983,0,0,0,89.375,9.782Zm-6.689,2.943a2.579,2.579,0,0,1,.9-1.362,2.437,2.437,0,0,1,1.517-.484,2.381,2.381,0,0,1,1.505.506,2.808,2.808,0,0,1,.934,1.34Z" transform="translate(-36.761 -2.923)" fill="#00369c"/>
    <rect id="Rect치ngulo_3682" data-name="Rect치ngulo 3682" width="3.56" height="11.625" transform="translate(17.629 5.253)" fill="#00369c"/>
    <path id="Trazado_11190" data-name="Trazado 11190" d="M215.45,2.165l-2.334.506a3.339,3.339,0,0,1-.492,1.231A3.26,3.26,0,0,1,210.5,5.375c-.05.01-.1.015-.143.024V8.221h1.534v5.122a3.471,3.471,0,0,0,1.066,2.755,4.655,4.655,0,0,0,3.153.934,9.7,9.7,0,0,0,1.253-.1,7.313,7.313,0,0,0,1.231-.252V13.8a5.851,5.851,0,0,1-.813.186,5.4,5.4,0,0,1-.791.055,1.755,1.755,0,0,1-1.2-.319,1.441,1.441,0,0,1-.34-1.088V8.219H218.7V5.253H215.45Z" transform="translate(-102.744)" fill="#43d12f"/>
    <path id="Trazado_11191" data-name="Trazado 11191" d="M155.11,4.048a1.967,1.967,0,0,0,1.856-1.856h-3.929A1.967,1.967,0,0,0,155.11,4.048Z" transform="translate(-73.929 -0.014)" fill="#43d12f"/>
    <path id="Trazado_11192" data-name="Trazado 11192" d="M201.132,4.048a1.967,1.967,0,0,0,1.857-1.856H199.06A1.967,1.967,0,0,0,201.132,4.048Z" transform="translate(-97.065 -0.014)" fill="#43d12f"/>
    <path id="Trazado_11193" data-name="Trazado 11193" d="M110.979,11.011a3.006,3.006,0,0,1,1.406.33,4.523,4.523,0,0,1,1.253,1.011l2.176-2.263a6.321,6.321,0,0,0-2.2-1.582,6.688,6.688,0,0,0-2.725-.571,6.274,6.274,0,0,0-4.384,1.747,5.8,5.8,0,0,0-1.3,1.913,6.011,6.011,0,0,0-.472,2.384,5.933,5.933,0,0,0,3.724,5.56,6.366,6.366,0,0,0,2.428.462,6.54,6.54,0,0,0,2.66-.56,6.031,6.031,0,0,0,2.153-1.571l-2.11-2.2a4.056,4.056,0,0,1-1.187.945,2.965,2.965,0,0,1-1.343.307,2.627,2.627,0,0,1-1.986-.845,2.93,2.93,0,0,1-.8-2.1,3.016,3.016,0,0,1,.781-2.11A2.5,2.5,0,0,1,110.979,11.011Z" transform="translate(-49.649 -2.9)" fill="#43d12f"/>
    <path id="Trazado_11194" data-name="Trazado 11194" d="M135.346,7.843a3.869,3.869,0,0,0-1.715.374,4.046,4.046,0,0,0-1.343,1.055V8.107h-3.56V19.732h3.562V12.35a3.191,3.191,0,0,1,1.153-1.077,3.145,3.145,0,0,1,1.55-.4,4.1,4.1,0,0,1,.9.1,4.336,4.336,0,0,1,.791.253v-3.1a1.311,1.311,0,0,0-.528-.209A6.454,6.454,0,0,0,135.346,7.843Z" transform="translate(-61.709 -2.854)" fill="#43d12f"/>
    <path id="Trazado_11195" data-name="Trazado 11195" d="M155.266,9.777a5.678,5.678,0,0,0-4.209-1.8,6.148,6.148,0,0,0-2.383.462,5.9,5.9,0,0,0-1.923,1.274,6.038,6.038,0,0,0-1.285,1.923A5.958,5.958,0,0,0,144.993,14a5.733,5.733,0,0,0,.494,2.362,5.986,5.986,0,0,0,3.351,3.2,6.681,6.681,0,0,0,2.484.462,7.643,7.643,0,0,0,2.6-.417,7.482,7.482,0,0,0,2.253-1.343l-2.353-2.088a2.886,2.886,0,0,1-1.011.647,3.619,3.619,0,0,1-1.319.231,3.01,3.01,0,0,1-1.758-.517,3.061,3.061,0,0,1-1.1-1.329h8.285v-.879a7.185,7.185,0,0,0-.441-2.536A5.98,5.98,0,0,0,155.266,9.777Zm-6.691,2.945a2.569,2.569,0,0,1,.9-1.362,2.436,2.436,0,0,1,1.516-.484,2.382,2.382,0,0,1,1.505.506,2.817,2.817,0,0,1,.935,1.34Z" transform="translate(-69.885 -2.921)" fill="#43d12f"/>
    <path id="Trazado_11196" data-name="Trazado 11196" d="M179.632,5.879a5.9,5.9,0,0,0-1.406-.571,6.268,6.268,0,0,0-3.923.264,5.886,5.886,0,0,0-3.208,3.153,5.8,5.8,0,0,0-.472,2.341,5.929,5.929,0,0,0,.461,2.341,6.028,6.028,0,0,0,1.264,1.9,5.794,5.794,0,0,0,1.89,1.275,5.881,5.881,0,0,0,2.319.462,5.17,5.17,0,0,0,1.648-.264,5.569,5.569,0,0,0,1.472-.746v.857h3.517V2.191l-3.56.769Zm0,7.209a3.236,3.236,0,0,1-1.1.693,3.877,3.877,0,0,1-1.362.23,3.024,3.024,0,0,1-2.165-.845,2.776,2.776,0,0,1-.89-2.1,2.794,2.794,0,0,1,.879-2.1,3.012,3.012,0,0,1,2.176-.845,3.814,3.814,0,0,1,1.362.242,3.441,3.441,0,0,1,1.1.66Z" transform="translate(-82.769 -0.013)" fill="#43d12f"/>
    <rect id="Rect치ngulo_3683" data-name="Rect치ngulo 3683" width="3.56" height="11.625" transform="translate(102.18 5.253)" fill="#43d12f"/>
    <path id="Trazado_11197" data-name="Trazado 11197" d="M240.35,12.3l-1.9-.831a.534.534,0,0,0-.7.275l-.691,1.579a3.405,3.405,0,0,1,.063.655,2.9,2.9,0,0,1-.824,2.089,2.788,2.788,0,0,1-3.942.08c-.027-.026-.054-.053-.08-.08a3.083,3.083,0,0,1,0-4.2,2.785,2.785,0,0,1,3.938-.084c.028.027.057.055.084.084a2.936,2.936,0,0,1,.422.56l.417-.952a1.2,1.2,0,0,1,1.582-.62h0l1.28.56a6.021,6.021,0,0,0-1.24-1.725,6.321,6.321,0,0,0-2-1.285,6.7,6.7,0,0,0-4.945,0,6.311,6.311,0,0,0-2,1.285,6.09,6.09,0,0,0-1.343,1.923,5.9,5.9,0,0,0,0,4.725,6.069,6.069,0,0,0,1.343,1.923,6.143,6.143,0,0,0,2,1.274,6.85,6.85,0,0,0,4.945,0,6.162,6.162,0,0,0,2-1.274,6.052,6.052,0,0,0,1.34-1.923,5.727,5.727,0,0,0,.5-2.362A5.852,5.852,0,0,0,240.35,12.3Z" transform="translate(-111.603 -2.9)" fill="#43d12f"/>
  </g>
</svg>
